# xmcd
#
# Track frame offsets:
# 150
# 8495
# 38601
# 56135
# 72271
# 87935
# 109294
# 136740
# 144862
# 155406
# 161663
# 171432
#
# Disc length: 2417 seconds
#
#
# Revision: 0
# Processed by: cddbd v1.5.1PL2 Copyright (c) Steve Scherf et al.
# Submitted via: FreeRIP 2.942 
#
DISCID=97096f0c
DTITLE=Doris Dörrie - Lotte will Prinzessin sein
DYEAR=2005
DGENRE=Kinder
TTITLE0=Lotte will Prinzessin sein 1
TTITLE1=Lotte will Prinzessin sein 2
TTITLE2=Lotte will Prinzessin sein 3
TTITLE3=Lotte und die Monster 1
TTITLE4=Lotte und die Monster 2
TTITLE5=Lotte und die Monster 3
TTITLE6=Lied: Wenn ich nachts nicht schlafen kann
TTITLE7=Lied: Wir sind die wunderbaren Monster
TTITLE8=Lied: Ein Tobsuchtsanfall
TTITLE9=Lied: Nie wieder saure Gurken
TTITLE10=Lied: Ich friere nie
TTITLE11=Lied: Jeder möchte gerne mal Prinzessin sein
EXTD=Lotte will Prinzessin sein - Lotte und die Monster
EXTT0=
EXTT1=
EXTT2=
EXTT3=
EXTT4=
EXTT5=
EXTT6=
EXTT7=
EXTT8=
EXTT9=
EXTT10=
EXTT11=
PLAYORDER=
